<svg width="460" height="120" viewBox="0 0 460 120" fill="none" xmlns="http://www.w3.org/2000/svg">
<path d="M6.08332 92.863C5.27395 92.8985 4.46563 92.7741 3.70832 92.4977C2.95102 92.2213 2.26089 91.7987 1.68058 91.2559C1.11517 90.6989 0.674718 90.0364 0.386728 89.3094C0.0987388 88.5825 -0.0307844 87.8066 0.00616044 87.0297V5.83922C-0.0307844 5.06231 0.0987388 4.28641 0.386728 3.55949C0.674718 2.83256 1.11517 2.17002 1.68058 1.61299C2.26089 1.07026 2.95102 0.647654 3.70832 0.371216C4.46563 0.0947782 5.27395 -0.0295496 6.08332 0.00591334C6.8927 -0.0295496 7.70102 0.0947782 8.45833 0.371216C9.21563 0.647654 9.90576 1.07026 10.4861 1.61299C11.0515 2.17002 11.4919 2.83256 11.7799 3.55949C12.0679 4.28641 12.1974 5.06231 12.1605 5.83922V87.1488C12.1974 87.9257 12.0679 88.7016 11.7799 89.4285C11.4919 90.1554 11.0515 90.8179 10.4861 91.3749C9.8955 91.8963 9.20079 92.2971 8.44394 92.5529C7.6871 92.8087 6.88395 92.9142 6.08332 92.863V92.863ZM11.9124 69.0535L4.34702 60.9582L42.422 28.2201C42.9632 27.6976 43.6126 27.2899 44.3282 27.0233C45.0439 26.7567 45.8098 26.6372 46.5766 26.6726C47.3292 26.7155 48.0645 26.9067 48.7366 27.2344C49.4088 27.5621 50.0034 28.0193 50.4834 28.5774C51.0245 29.0867 51.4478 29.6998 51.7255 30.3767C52.0033 31.0536 52.1295 31.7791 52.0957 32.5059C51.9866 33.978 51.2728 35.3483 50.1113 36.3154L11.9124 69.0535ZM50.3594 92.2678C49.7561 92.7638 49.0563 93.1401 48.3006 93.3751C47.5449 93.6101 46.7482 93.699 45.9565 93.6368C45.1689 93.5847 44.402 93.3719 43.7069 93.0127C43.0119 92.6534 42.4046 92.1559 41.9258 91.5535L16.7493 61.7916L25.4308 53.9345L51.2275 84.4106C51.7375 84.97 52.1264 85.6212 52.3712 86.3264C52.6161 87.0316 52.7122 87.7766 52.6538 88.5178C52.419 89.9716 51.5941 91.2771 50.3594 92.1487V92.2678Z" fill="#0097EC"/>
<path d="M95.1292 93.3389C88.9314 93.4665 82.8099 92.0079 77.3939 89.1127C72.3345 86.3497 68.1542 82.3165 65.3016 77.446C62.2929 72.2229 60.7742 66.3299 60.8989 60.3627C60.764 54.3566 62.2827 48.4227 65.3016 43.1603C68.1542 38.2898 72.3345 34.2567 77.3939 31.4936C82.8099 28.5985 88.9314 27.1398 95.1292 27.2675C101.286 27.151 107.365 28.6096 112.74 31.4936C117.8 34.2567 121.98 38.2898 124.832 43.1603C127.851 48.4227 129.37 54.3566 129.235 60.3627C129.35 66.3215 127.855 72.2071 124.894 77.446C122.092 82.3481 117.928 86.4075 112.864 89.1722C107.442 92.0467 101.321 93.4847 95.1292 93.3389V93.3389ZM95.1292 82.6246C99.1462 82.6652 103.096 81.6349 106.539 79.6484C109.829 77.7664 112.512 75.047 114.29 71.7913C116.21 68.2259 117.169 64.256 117.081 60.2436C117.165 56.2126 116.206 52.2245 114.29 48.6365C112.522 45.358 109.838 42.6167 106.539 40.7198C103.096 38.7333 99.1462 37.703 95.1292 37.7436C91.1122 37.703 87.1621 38.7333 83.719 40.7198C80.4089 42.6228 77.7064 45.3611 75.9057 48.6365C73.9546 52.2143 72.9735 56.2061 73.053 60.2436C72.9732 64.2623 73.9547 68.2349 75.9057 71.7913C77.7169 75.0439 80.4182 77.7605 83.719 79.6484C87.1621 81.6349 91.1122 82.6652 95.1292 82.6246V82.6246Z" fill="#0097EC"/>
<path d="M176.367 93.3389C170.583 93.4542 164.884 91.9886 159.935 89.1127C155.161 86.2714 151.282 82.2389 148.711 77.446C145.904 72.1612 144.498 66.2936 144.618 60.3627C144.483 54.3566 146.002 48.4227 149.021 43.1603C151.873 38.2898 156.053 34.2567 161.113 31.4936C166.529 28.5985 172.65 27.1398 178.848 27.2675C185.005 27.151 191.083 28.6096 196.459 31.4936C201.518 34.2567 205.699 38.2898 208.551 43.1603C211.57 48.4227 213.089 54.3566 212.954 60.3627H205.637C205.749 66.2595 204.455 72.1027 201.854 77.446C199.555 82.1563 195.978 86.1861 191.498 89.1127C187.019 91.9645 181.741 93.4386 176.367 93.3389V93.3389ZM178.6 119.887C172.915 119.929 167.289 118.792 162.105 116.553C157.014 114.344 152.549 110.997 149.083 106.791C148.578 106.223 148.211 105.555 148.007 104.835C147.803 104.114 147.768 103.359 147.904 102.625C148.039 101.92 148.322 101.251 148.739 100.657C149.155 100.063 149.694 99.5572 150.323 99.1722C150.987 98.7135 151.744 98.3921 152.544 98.2282C153.345 98.0643 154.172 98.0615 154.973 98.2198C156.547 98.4999 157.947 99.353 158.88 100.601C161.134 103.312 164.024 105.474 167.314 106.91C170.938 108.472 174.876 109.245 178.848 109.172C182.693 109.198 186.478 108.254 189.824 106.434C193.25 104.536 196.03 101.724 197.823 98.3388C199.966 94.2859 201.031 89.7873 200.924 85.2436V68.3389L205.016 57.8627L213.078 60.3627V86.196C213.154 92.1506 211.661 98.0271 208.737 103.279C205.933 108.323 201.753 112.541 196.645 115.482C191.176 118.538 184.925 120.064 178.6 119.887ZM178.848 82.6245C182.865 82.6652 186.815 81.6349 190.258 79.6484C193.548 77.7664 196.231 75.047 198.009 71.7913C199.929 68.2259 200.888 64.256 200.8 60.2436C200.884 56.2126 199.925 52.2245 198.009 48.6365C196.241 45.358 193.557 42.6167 190.258 40.7198C186.815 38.7333 182.865 37.703 178.848 37.7436C174.831 37.703 170.881 38.7333 167.438 40.7198C164.128 42.6228 161.425 45.3611 159.624 48.6365C157.673 52.2143 156.692 56.2061 156.772 60.2436C156.692 64.2622 157.673 68.2349 159.624 71.7913C161.435 75.0439 164.137 77.7605 167.438 79.6484C170.881 81.6349 174.831 82.6652 178.848 82.6245V82.6245Z" fill="#B9B4B4"/>
<path d="M238.007 92.8625C236.334 92.9607 234.687 92.4266 233.419 91.3744C232.847 90.7753 232.409 90.0701 232.131 89.3023C231.854 88.5346 231.743 87.7204 231.806 86.9101V33.6958C231.752 32.8952 231.867 32.0923 232.144 31.3354C232.421 30.5784 232.854 29.8831 233.419 29.2911C234.035 28.7496 234.76 28.3333 235.548 28.0674C236.337 27.8014 237.173 27.6912 238.007 27.7434C239.702 27.6292 241.374 28.1643 242.658 29.2315C243.219 29.8354 243.646 30.5428 243.912 31.3104C244.179 32.078 244.28 32.8896 244.208 33.6958V86.9101C244.311 88.5163 243.754 90.0973 242.658 91.3149C242.034 91.8639 241.3 92.2845 240.5 92.5506C239.7 92.8168 238.852 92.9229 238.007 92.8625V92.8625ZM238.007 52.1482C237.939 47.6357 239.208 43.1974 241.666 39.3506C244.107 35.6174 247.501 32.5441 251.526 30.422C255.692 28.1859 260.395 27.0366 265.168 27.0887C269.023 26.8381 272.872 27.6432 276.268 29.4101C277.32 29.89 278.171 30.7002 278.678 31.7068C279.185 32.7133 279.32 33.856 279.059 34.9458C278.887 35.9255 278.386 36.8244 277.633 37.5054C276.951 38.0903 276.114 38.4818 275.214 38.6363C274.192 38.8426 273.136 38.8426 272.113 38.6363C267.428 37.6112 262.571 37.5302 257.851 38.3982C254.093 39.041 250.619 40.7396 247.867 43.2791C246.666 44.4569 245.724 45.8539 245.095 47.3875C244.467 48.9212 244.165 50.5602 244.208 52.2077L238.007 52.1482Z" fill="#B9B4B4"/>
<path d="M298.407 92.9818C297.57 93.0022 296.738 92.8598 295.96 92.5632C295.182 92.2665 294.474 91.8218 293.88 91.2556C293.29 90.6854 292.827 90.0063 292.518 89.2595C292.209 88.5128 292.061 87.7136 292.082 86.9103V33.9342C292.052 33.121 292.196 32.3105 292.505 31.5529C292.815 30.7953 293.283 30.1066 293.88 29.5294C294.479 28.974 295.189 28.5402 295.967 28.2538C296.745 27.9675 297.574 27.8344 298.407 27.8627C299.25 27.8263 300.091 27.9553 300.88 28.2419C301.669 28.5285 302.389 28.9666 302.996 29.5294C303.582 30.1116 304.038 30.8026 304.337 31.56C304.636 32.3174 304.77 33.1252 304.732 33.9342V86.9103C304.762 87.7094 304.623 88.5061 304.325 89.2526C304.027 89.9992 303.574 90.6804 302.996 91.2556C302.394 91.8291 301.677 92.2782 300.888 92.5751C300.099 92.872 299.254 93.0104 298.407 92.9818V92.9818ZM339.83 92.9818C338.993 93.0022 338.161 92.8598 337.383 92.5632C336.605 92.2665 335.898 91.8218 335.304 91.2556C334.714 90.6854 334.25 90.0063 333.941 89.2595C333.632 88.5128 333.484 87.7136 333.505 86.9103V52.8627C333.683 50.8541 333.434 48.8318 332.773 46.9184C332.112 45.005 331.054 43.2404 329.661 41.7318C328.324 40.513 326.746 39.5638 325.02 38.9401C323.295 38.3165 321.457 38.0311 319.615 38.1008C317.622 38.0477 315.64 38.4024 313.801 39.1413C311.962 39.8803 310.308 40.9865 308.949 42.3865C306.09 45.3586 304.574 49.2965 304.732 53.3389H296.919C296.783 48.6209 297.847 43.9424 300.019 39.708C302.048 35.898 305.139 32.7038 308.949 30.4818C312.876 28.2162 317.39 27.0608 321.971 27.1485C326.305 27.0833 330.581 28.1095 334.373 30.1247C338.046 32.169 341.003 35.2145 342.869 38.8747C345.03 43.2397 346.093 48.0312 345.97 52.8627V86.9103C345.999 87.7094 345.86 88.5061 345.562 89.2526C345.264 89.9992 344.812 90.6804 344.233 91.2556C343.654 91.8073 342.966 92.2437 342.211 92.5399C341.455 92.8361 340.646 92.9863 339.83 92.9818V92.9818ZM381.13 92.9818C380.293 93.0022 379.461 92.8598 378.683 92.5632C377.905 92.2665 377.197 91.8218 376.603 91.2556C376.013 90.6854 375.55 90.0063 375.241 89.2595C374.932 88.5128 374.783 87.7136 374.805 86.9103V52.8627C374.972 50.8548 374.718 48.8352 374.058 46.9233C373.397 45.0114 372.344 43.246 370.96 41.7318C369.623 40.513 368.046 39.5638 366.32 38.9401C364.595 38.3165 362.756 38.0311 360.914 38.1008C358.93 38.0426 356.956 38.3954 355.126 39.1349C353.296 39.8744 351.654 40.9834 350.31 42.3865C347.494 45.3797 346.004 49.3084 346.156 53.3389H335.862C335.755 48.5816 336.952 43.8809 339.334 39.708C341.614 35.8173 344.988 32.6203 349.07 30.4818C353.464 28.1982 358.4 27.0496 363.395 27.1485C367.729 27.0833 372.005 28.1095 375.797 30.1247C379.469 32.169 382.426 35.2145 384.293 38.8747C386.454 43.2397 387.516 48.0312 387.393 52.8627V86.9103C387.423 87.7094 387.284 88.5061 386.985 89.2526C386.687 89.9992 386.235 90.6804 385.657 91.2556C385.063 91.8218 384.355 92.2665 383.577 92.5632C382.799 92.8598 381.967 93.0022 381.13 92.9818V92.9818Z" fill="#B9B4B4"/>
<path d="M433.091 93.3392C427.623 93.3886 422.188 92.5225 417.03 90.7797C412.755 89.4532 408.839 87.2378 405.558 84.2915C404.967 83.7318 404.519 83.0481 404.25 82.2941C403.981 81.54 403.898 80.7363 404.008 79.9463C404.092 79.1547 404.352 78.3895 404.769 77.7018C405.186 77.0141 405.751 76.4197 406.426 75.9582C407.081 75.3769 407.855 74.9337 408.698 74.6569C409.542 74.3801 410.437 74.2759 411.325 74.351C412.923 74.5526 414.395 75.2907 415.48 76.4344C417.4 78.282 419.703 79.7218 422.239 80.6607C425.51 82.0045 429.038 82.6736 432.595 82.6249C436.4 82.8444 440.195 82.0624 443.571 80.363C444.708 79.7858 445.667 78.9323 446.353 77.8877C447.038 76.8432 447.426 75.6442 447.478 74.4106C447.474 73.1775 447.149 71.9649 446.531 70.8835C445.914 69.8021 445.024 68.8864 443.943 68.2201C439.865 65.9028 435.32 64.4421 430.611 63.9344C424.017 63.0872 417.76 60.6276 412.441 56.7915C410.652 55.3759 409.215 53.5928 408.239 51.5737C407.262 49.5545 406.77 47.3509 406.798 45.1249C406.66 41.4395 407.991 37.8421 410.519 35.0654C413.119 32.3295 416.407 30.28 420.069 29.113C423.974 27.7993 428.085 27.1349 432.223 27.1487C437.184 27.0612 442.114 27.9107 446.734 29.6487C450.635 31.1001 454.091 33.4754 456.779 36.5535C457.843 37.6271 458.422 39.0603 458.391 40.5416C458.337 41.2413 458.12 41.9204 457.755 42.5284C457.39 43.1364 456.887 43.6576 456.283 44.0534C455.595 44.4855 454.823 44.7817 454.014 44.9247C453.205 45.0678 452.374 45.0549 451.57 44.8868C449.858 44.6112 448.265 43.8672 446.982 42.7439C445.098 40.9524 442.805 39.6072 440.284 38.8153C437.585 38.0629 434.785 37.7019 431.975 37.7439C428.772 37.6404 425.588 38.2517 422.673 39.5297C421.565 39.933 420.61 40.6496 419.934 41.5848C419.259 42.52 418.895 43.6298 418.89 44.7677C418.866 46.1422 419.277 47.4915 420.069 48.6368C421.285 50.0413 422.901 51.0755 424.719 51.613C428.016 52.804 431.421 53.7007 434.889 54.2916C439.983 55.1389 444.929 56.6613 449.586 58.8153C452.708 60.2476 455.382 62.4445 457.337 65.1844C458.932 67.7124 459.749 70.6223 459.694 73.5773C459.713 77.0944 458.633 80.5362 456.593 83.4582C454.353 86.5492 451.261 88.9811 447.664 90.482C443.077 92.4299 438.106 93.4045 433.091 93.3392V93.3392Z" fill="#B9B4B4"/>
</svg>
